<svg xmlns="http://www.w3.org/2000/svg" viewBox="0 0 128 128" width="128" height="128">
  <path fill="#000000" fill-rule="evenodd" d="M18.48 54.50 L18.75 92.50 L20.05 96.50 L21.26 98.50 L23.50 100.77 L26.50 102.86 L28.50 103.74 L32.50 104.34 L96.50 104.33 L99.50 103.70 L103.50 101.69 L106.89 98.50 L108.61 95.50 L109.53 91.50 L109.60 88.50 L109.54 53.50 L108.64 48.50 L107.70 46.50 L106.11 44.50 L103.50 42.32 L101.50 41.25 L97.50 39.98 L85.50 39.75 L85.00 38.50 L84.93 31.50 L83.78 27.50 L81.50 24.44 L78.40 22.50 L74.50 21.57 L57.50 21.54 L52.50 21.86 L49.50 22.97 L46.42 25.50 L44.17 29.50 L43.60 38.50 L43.18 39.50 L42.50 39.86 L30.50 40.02 L26.50 41.33 L22.50 44.34 L20.08 47.50 L19.20 49.50 Z M50.13 34.50 L50.14 38.50 L50.41 39.50 L51.50 39.85 L77.50 39.89 L78.09 39.50 L78.36 38.50 L78.35 32.50 L77.94 30.50 L76.50 28.89 L74.50 27.96 L53.50 28.03 L51.50 29.19 L50.60 30.50 L50.20 31.50 Z M24.94 56.50 L24.95 90.50 L25.43 92.50 L26.50 94.40 L28.50 96.52 L30.50 97.67 L34.50 98.10 L95.50 98.08 L97.50 97.67 L99.50 96.55 L101.50 94.28 L102.50 92.48 L103.02 90.50 L102.96 53.50 L102.61 51.50 L101.61 49.50 L100.50 48.22 L98.50 46.92 L95.50 46.10 L31.50 46.22 L28.69 47.50 L26.49 49.50 L25.10 52.50 Z"/>
</svg>
