<svg xmlns="http://www.w3.org/2000/svg" viewBox="0 0 128 128" width="128" height="128">
  <path fill="#000000" fill-rule="evenodd" d="M18.18 100.50 L18.34 102.50 L19.03 104.50 L20.21 106.50 L21.50 107.80 L25.50 109.61 L29.50 109.75 L85.50 93.15 L87.50 91.33 L103.78 59.50 L106.94 52.50 L106.97 50.50 L106.50 49.60 L79.88 22.50 L77.50 20.19 L75.50 19.08 L73.50 19.11 L70.50 20.37 L34.52 39.50 L33.02 41.50 Z M25.89 96.50 L25.97 97.50 L26.50 97.58 L53.99 68.50 L54.84 67.50 L55.01 66.50 L54.50 62.50 L55.30 59.50 L58.50 55.98 L60.50 54.99 L62.50 54.65 L66.50 55.19 L68.50 56.28 L70.77 58.50 L71.79 60.50 L72.12 63.50 L71.74 66.50 L70.60 68.50 L68.47 70.50 L65.50 71.93 L59.50 71.89 L31.28 101.50 L31.07 102.50 L31.50 102.71 L35.50 101.63 L81.50 87.90 L82.80 86.50 L98.63 55.50 L100.06 52.50 L99.91 51.50 L74.50 25.96 L73.50 26.02 L69.50 28.02 L39.59 43.50 L38.36 46.50 Z"/>
</svg>
